<svg xmlns="http://www.w3.org/2000/svg" x="0" y="0" viewBox="0 0 64 80"><title>computer-plan</title><g><path d="M59,5H5A3,3,0,0,0,2,8V44a3,3,0,0,0,3,3H26.531L24.9,54H24a1,1,0,0,0-.707.293l-2,2A1,1,0,0,0,22,58H42a1,1,0,0,0,.707-1.707l-2-2A1,1,0,0,0,40,54h-.9l-1.635-7H59a3,3,0,0,0,3-3V8A3,3,0,0,0,59,5ZM5,7H59a1,1,0,0,1,1,1V39H4V8A1,1,0,0,1,5,7ZM37.338,55.228a1,1,0,0,0,.974.772H25.688a1,1,0,0,0,.974-.772L28.585,47h6.83ZM59,45H5a1,1,0,0,1-1-1V41H60v3A1,1,0,0,1,59,45Z"/><rect width="3" height="2" x="31" y="42"/><rect width="8" height="2" x="51" y="8"/><rect width="4" height="2" x="46" y="8"/><rect width="2" height="2" x="43" y="8"/><rect width="9" height="2" x="50" y="11"/><rect width="6" height="2" x="43" y="11"/><rect width="6" height="2" x="43" y="14"/><rect width="4" height="2" x="50" y="14"/><rect width="4" height="2" x="55" y="14"/><rect width="16" height="2" x="43" y="17"/><rect width="8" height="2" x="13" y="27"/><rect width="4" height="2" x="8" y="27"/><rect width="2" height="2" x="5" y="27"/><rect width="9" height="2" x="12" y="30"/><rect width="6" height="2" x="5" y="30"/><rect width="6" height="2" x="5" y="33"/><rect width="4" height="2" x="12" y="33"/><rect width="4" height="2" x="17" y="33"/><rect width="16" height="2" x="5" y="36"/><path d="M13,21a1,1,0,0,0-1,1v4h2V23h8.2a10,10,0,1,0,19.747,1H52a1,1,0,0,0,1-1V20H51v2H41.539a10,10,0,0,0-18.7-1Zm27,4H33V17.069A8.008,8.008,0,0,1,40,25Zm-9-7.931V26a1,1,0,0,0,1,1h7.737A8,8,0,1,1,31,17.069Z"/><path d="M8,16H20a1,1,0,0,0,1-1V11a1,1,0,0,0-1-1H8a1,1,0,0,0-1,1v4A1,1,0,0,0,8,16Zm1-4H19v2H9Z"/><path d="M56,30H44a1,1,0,0,0-1,1v4a1,1,0,0,0,1,1H56a1,1,0,0,0,1-1V31A1,1,0,0,0,56,30Zm-1,4H45V32H55Z"/></g></svg>